<svg width="165" height="32" viewBox="0 0 165 32" fill="none" xmlns="http://www.w3.org/2000/svg">
<path d="M42.8383 19.1918C43.5237 19.9262 44.405 20.5137 45.3352 20.9054C46.4612 21.346 47.6852 21.5418 48.9091 21.5418C49.5945 21.5418 50.2799 21.4439 50.8185 21.3949C51.357 21.346 51.8956 21.1991 52.3851 21.0033C52.8747 20.8564 53.2664 20.6606 53.6581 20.5137C53.9518 20.3179 54.2945 20.171 54.6372 20.0241L54.1476 18.996C53.9028 19.1429 53.6091 19.2408 53.3154 19.3877C53.0216 19.5345 52.7279 19.6324 52.4341 19.7304C52.0914 19.8283 51.6997 19.9262 51.357 19.9262C50.8674 20.0241 50.3779 20.0241 49.8883 20.0241C49.007 20.0731 48.1258 19.8283 47.3914 19.3877C46.755 18.996 46.2164 18.4574 45.8247 17.821C45.4331 17.0866 45.1883 16.3033 45.0904 15.471C44.9435 14.4918 44.8945 13.5127 44.8945 12.4845C44.8945 11.6523 44.9925 10.771 45.0414 9.88976C45.0904 9.10643 45.3352 8.3231 45.6779 7.58873C45.9716 6.90331 46.4612 6.31581 47.0487 5.87519C47.7831 5.43457 48.6154 5.18978 49.4966 5.18978C50.3779 5.18978 51.2101 5.43457 51.9445 5.92415C52.6299 6.41373 53.0216 7.19706 53.2174 8.22518H54.2945V4.84707C53.9518 4.70019 53.6091 4.60228 53.2174 4.4554C52.8258 4.30853 52.3851 4.21061 51.9445 4.21061C51.4549 4.11269 51.0633 4.11269 50.5737 4.06374C50.182 4.06374 49.7414 3.96582 49.4477 3.96582C48.1747 3.96582 46.8529 4.16165 45.6289 4.60228C43.6216 5.33665 42.055 7.05019 41.5654 9.15539C41.2227 10.3793 41.0758 11.6033 41.0758 12.8762C41.0268 14.1002 41.2227 15.2752 41.5654 16.4502C41.7123 17.5272 42.2018 18.4085 42.8383 19.1918Z" fill="#1A9F29"/>
<path d="M109.324 20.9544C110.107 20.8565 110.89 20.6117 111.576 20.269C112.261 19.8773 112.8 19.2898 113.142 18.5554C113.583 17.5763 113.779 16.5481 113.779 15.4711C113.828 14.6877 113.681 13.8554 113.387 13.1211C113.142 12.4846 112.702 11.8971 112.114 11.5054C111.429 11.0648 110.597 10.7711 109.813 10.6242C108.687 10.4284 107.512 10.3305 106.337 10.3794H104.869V6.36484C104.82 6.07109 104.918 5.77734 105.113 5.53255C105.456 5.38567 105.848 5.33672 106.19 5.38567H108.247C108.785 5.38567 109.324 5.38567 109.813 5.48359C110.156 5.48359 110.499 5.63046 110.792 5.8263C111.086 6.02213 111.282 6.31588 111.429 6.65859C111.625 7.14817 111.772 7.58879 111.919 8.07837H112.751V4.30859H100.266V4.84713C100.364 4.84713 100.413 4.94505 100.609 4.94505C100.805 5.04297 100.952 5.09192 101.001 5.14088C101.099 5.2388 101.148 5.38567 101.197 5.53255C101.197 5.72838 101.295 5.92421 101.295 6.21796V19.1919C101.295 19.4367 101.295 19.6815 101.197 19.8773C101.197 20.0731 101.099 20.22 101.001 20.269C100.903 20.3669 100.756 20.4648 100.609 20.4648C100.511 20.5138 100.364 20.5627 100.266 20.5627V21.1013H106.582C107.463 21.1013 108.394 21.0523 109.324 20.9544ZM105.162 19.7304C105.015 19.6325 104.918 19.4367 104.966 19.2408C104.966 19.045 104.869 18.7513 104.869 18.4086V11.3586H106.337C107.61 11.3586 108.589 11.7013 109.128 12.3867C109.715 13.0232 109.96 14.1492 109.96 15.6179C109.96 16.4013 109.911 17.2336 109.715 17.9679C109.569 18.4575 109.324 18.9471 108.981 19.3388C108.687 19.5835 108.345 19.7794 107.953 19.9752C107.561 20.0731 107.121 20.1221 106.729 20.1221C106.337 20.0242 105.995 20.0242 105.75 19.9752C105.505 19.9263 105.309 19.8283 105.162 19.7304Z" fill="#1A9F29"/>
<path d="M91.4537 20.5621C91.3557 20.5621 91.3068 20.4642 91.1109 20.4642C90.9151 20.3663 90.7682 20.3173 90.7193 20.2683C90.6703 20.2194 90.5724 20.0725 90.5234 19.8767C90.5234 19.6808 90.4255 19.485 90.4255 19.1913V14.5402H92.1391C92.9714 14.5402 93.8036 14.4423 94.6359 14.3444C95.3703 14.2465 96.1047 13.9527 96.7411 13.61C97.3776 13.2184 97.8672 12.6798 98.2099 11.9944C98.6015 11.1132 98.7974 10.134 98.7484 9.20379C98.7484 8.32255 98.6015 7.4413 98.2588 6.60901C97.9161 6.02151 97.4755 5.53193 96.888 5.14026C96.3005 4.79756 95.6151 4.60172 94.9297 4.50381C94.1463 4.40589 93.363 4.35693 92.6286 4.35693H85.9703V4.89547C86.0683 4.89547 86.1172 4.99339 86.313 4.99339C86.5089 5.09131 86.6558 5.14027 86.7047 5.18922C86.8026 5.28714 86.8516 5.43401 86.9005 5.58089C86.9005 5.77672 86.9985 5.97255 86.9985 6.2663V19.1913C86.9985 19.4361 86.9985 19.6808 86.9005 19.8767C86.9005 20.0725 86.8026 20.2194 86.7047 20.2683C86.6068 20.3663 86.4599 20.4642 86.313 20.4642C86.2151 20.5131 86.0683 20.5621 85.9703 20.5621V21.0517H91.5026L91.4537 20.5621ZM90.5234 6.16839C90.5234 6.02151 90.5234 5.9236 90.6214 5.77672C90.6214 5.67881 90.6703 5.58089 90.7682 5.53193C90.8661 5.43401 91.013 5.38506 91.1599 5.38506C91.3557 5.38506 91.5516 5.28714 91.8943 5.28714C92.2859 5.28714 92.7266 5.3361 93.1182 5.43401C93.5099 5.58089 93.8526 5.77672 94.1464 6.07047C94.4401 6.41318 94.6849 6.80484 94.8318 7.19651C94.9786 7.78401 95.0766 8.37151 95.0276 8.959C95.0276 10.3788 94.8318 11.4559 94.3911 12.1902C93.9995 12.9246 93.2651 13.3163 92.188 13.3163H90.4745V6.16839H90.5234Z" fill="#1A9F29"/>
<path d="M83.6695 17.2336H82.5924C82.4945 17.7721 82.3476 18.3106 82.2007 18.8002C82.1028 19.1429 81.9559 19.4367 81.6622 19.6815C81.4174 19.9263 81.0747 20.0731 80.683 20.0242C80.0955 20.1221 79.557 20.1221 78.9695 20.1221C78.4309 20.171 77.8924 20.1221 77.4028 20.0242C77.1091 19.9752 76.8153 19.8773 76.5216 19.7794C76.3257 19.6815 76.1789 19.4856 76.1789 19.2408C76.0809 18.9471 76.0809 18.6044 76.0809 18.2617V12.9252H78.9695C79.2143 12.9252 79.508 13.0232 79.8018 13.0232C80.0955 13.0721 80.3403 13.0721 80.634 13.17C80.8788 13.219 81.1236 13.3169 81.3195 13.4148V11.2117C81.1236 11.3586 80.8788 11.4565 80.634 11.4565C80.0955 11.5544 79.508 11.6523 78.9695 11.6523H76.032V6.12005C76.032 5.87526 76.0809 5.58151 76.1789 5.38567C76.3257 5.2388 76.5216 5.2388 76.8643 5.2388H78.7247C79.2632 5.2388 79.8018 5.2388 80.2913 5.33672C80.634 5.38567 80.9768 5.48359 81.2705 5.67942C81.5643 5.87526 81.7601 6.16901 81.907 6.51171C82.1028 7.00129 82.2497 7.44192 82.3965 7.98046H83.2778V4.30859H71.5768V4.84713C71.6747 4.84713 71.7237 4.94505 71.9195 4.94505C72.1153 5.04297 72.2622 5.09192 72.3112 5.14088C72.4091 5.2388 72.458 5.38567 72.507 5.53255C72.507 5.72838 72.6049 5.92421 72.6049 6.21796V19.1429C72.6049 19.3877 72.6049 19.6325 72.507 19.8283C72.507 20.0242 72.4091 20.171 72.3112 20.22C72.2132 20.3179 72.0664 20.4158 71.9195 20.4158C71.8216 20.4648 71.6747 20.5138 71.5768 20.5138V21.0033H83.6695V17.2336Z" fill="#1A9F29"/>
<path d="M65.2126 20.9544C65.9959 20.8565 66.7793 20.6117 67.4647 20.269C68.1501 19.8773 68.7376 19.2898 69.0803 18.5554C69.5209 17.5763 69.7167 16.5481 69.7167 15.4711C69.7657 14.6877 69.6188 13.8554 69.3251 13.1211C69.0803 12.4846 68.6397 11.8971 68.0522 11.5054C67.3668 11.0648 66.5345 10.7711 65.7511 10.6242C64.6251 10.4284 63.4501 10.3305 62.2751 10.3794H60.8064V6.36484C60.7574 6.07109 60.8553 5.77734 61.0511 5.53255C61.3939 5.38567 61.7855 5.33672 62.1282 5.38567H64.1845C64.723 5.38567 65.2616 5.38567 65.7511 5.48359C66.0938 5.53255 66.4365 5.63046 66.7303 5.8263C67.024 6.02213 67.2199 6.31588 67.3668 6.65859C67.5626 7.14817 67.7095 7.58879 67.8563 8.07837H68.7376V4.30859H56.2043V4.84713C56.3022 4.84713 56.3512 4.94505 56.547 4.94505C56.7428 5.04297 56.8897 5.09192 56.9387 5.14088C57.0366 5.2388 57.0855 5.38567 57.1345 5.53255C57.1345 5.72838 57.2324 5.92421 57.2324 6.21796V19.1429C57.2324 19.3877 57.2324 19.6325 57.1345 19.8283C57.1345 20.0242 57.0366 20.171 56.9387 20.22C56.8407 20.3179 56.6939 20.4158 56.547 20.4158C56.4491 20.4648 56.3022 20.5138 56.2043 20.5138V21.1502H62.5199C63.4991 21.0523 64.3313 21.0523 65.2126 20.9544ZM61.0511 19.7304C60.9043 19.6325 60.8064 19.4367 60.8553 19.2408C60.8553 19.045 60.7574 18.7513 60.7574 18.4086V11.3586H62.2261C63.4991 11.3586 64.4782 11.7013 65.0168 12.3867C65.6043 13.0232 65.849 14.1492 65.849 15.6179C65.849 16.4013 65.8001 17.2336 65.6043 17.9679C65.4574 18.4575 65.2126 18.9471 64.8699 19.3388C64.5761 19.5836 64.2334 19.7794 63.8418 19.9752C63.4501 20.0731 63.0095 20.1221 62.6178 20.1221C62.2261 20.0242 61.9324 20.0242 61.6386 19.9752C61.4428 19.9263 61.247 19.8773 61.0511 19.7304Z" fill="#1A9F29"/>
<path d="M164.205 25.8496H40.9288V27.4652H164.205V25.8496Z" fill="#1A9F29"/>
<path d="M154.365 14.7849C154.708 15.2744 155.001 15.6661 155.344 16.0578C155.589 16.4494 155.981 16.8901 156.225 17.2817C156.47 17.7224 156.764 18.114 157.107 18.5057C157.449 18.9463 157.743 19.3869 157.988 19.8765C158.233 20.2682 158.478 20.7578 158.673 21.1494L164.353 21.2473C163.716 20.6109 163.226 20.0234 162.59 19.3869C162.051 18.7505 161.562 18.2609 161.219 17.9182C160.681 17.2817 160.191 16.7921 159.799 16.3026C159.359 15.813 158.918 15.2744 158.526 14.8338C158.135 14.3442 157.743 13.8547 157.4 13.3651C157.107 12.8755 156.666 12.288 156.323 11.7495L156.568 11.4067C156.96 10.8682 157.449 10.3297 158.037 9.64426C158.575 8.95884 159.114 8.27343 159.75 7.68593C160.289 7.04947 160.876 6.41302 161.513 5.87448C162.003 5.43385 162.541 4.99323 163.08 4.60156H159.114C158.918 5.04219 158.722 5.43385 158.478 5.82552C158.184 6.36406 157.89 6.9026 157.498 7.39218C157.156 7.93072 156.764 8.51822 156.421 9.15467C156.079 9.79113 155.687 10.2807 155.295 10.8682C154.904 11.4557 154.561 11.9453 154.218 12.337C153.875 12.8265 153.582 13.1692 153.386 13.463C153.631 13.8057 153.973 14.2953 154.365 14.7849Z" fill="#1A9F29"/>
<path d="M153.876 20.5627C153.778 20.5627 153.729 20.4648 153.533 20.4648C153.337 20.3669 153.19 20.3179 153.141 20.269C153.043 20.171 152.994 20.0242 152.945 19.8773C152.945 19.6815 152.847 19.4856 152.847 19.1919V6.26692C152.847 6.02213 152.847 5.77734 152.945 5.58151C152.945 5.38567 153.043 5.2388 153.141 5.18984C153.239 5.09192 153.386 5.04297 153.533 4.99401C153.631 4.94505 153.778 4.89609 153.876 4.89609V4.30859H148.343V4.84713C148.441 4.84713 148.49 4.94505 148.686 4.94505C148.882 5.04297 149.029 5.09192 149.078 5.14088C149.176 5.2388 149.225 5.38567 149.274 5.53255C149.274 5.72838 149.371 5.92421 149.371 6.21796V19.1429C149.371 19.3877 149.371 19.6325 149.274 19.8283C149.274 20.0242 149.176 20.171 149.078 20.22C148.98 20.3179 148.833 20.4158 148.686 20.4158C148.588 20.4648 148.441 20.5138 148.343 20.5138V21.0033H153.876V20.5627Z" fill="#1A9F29"/>
<path d="M117.304 19.045C117.5 18.0658 117.94 16.744 118.43 15.0304H123.815L124.549 17.2336C124.843 18.0169 125.137 18.8492 125.284 19.6815C125.48 20.171 125.578 20.6606 125.627 21.1502H129.935C129.739 20.8075 129.543 20.3179 129.249 19.7794C128.858 18.9961 128.564 18.2127 128.27 17.4294L124.354 6.36484C124.207 5.97317 124.06 5.58151 124.011 5.14088C123.913 4.79818 123.913 4.50443 123.864 4.30859H119.066V4.84713C119.164 4.84713 119.213 4.94505 119.409 4.94505C119.605 5.04297 119.752 5.09192 119.801 5.14088C119.898 5.2388 119.947 5.38567 119.996 5.53255V5.87526C119.996 6.26692 119.947 6.60963 119.801 6.95234L117.108 13.6107C116.618 14.8346 116.129 15.9117 115.835 16.744C115.541 17.5273 115.15 18.3106 114.954 18.8492C114.709 19.3877 114.464 19.8773 114.268 20.22C114.072 20.5138 113.926 20.8075 113.779 21.1013H116.863C116.961 20.4158 117.108 19.7304 117.304 19.045ZM121.171 7.05025L123.374 13.8554H118.723L121.171 7.05025Z" fill="#1A9F29"/>
<path d="M136.398 20.5627H136.251C136.153 20.5627 136.104 20.4648 135.908 20.4648C135.712 20.3669 135.565 20.3179 135.516 20.269C135.418 20.171 135.369 20.0242 135.32 19.8773C135.32 19.6815 135.223 19.4856 135.223 19.1919V12.7294H141.734V19.094C141.734 19.3388 141.734 19.5835 141.636 19.7794C141.636 19.9752 141.538 20.1221 141.44 20.171C141.342 20.269 141.195 20.3669 141.049 20.3669C140.951 20.4158 140.804 20.4648 140.706 20.4648V21.0033H146.238V20.4648C146.14 20.4648 146.091 20.3669 145.895 20.3669C145.7 20.269 145.553 20.22 145.504 20.171C145.406 20.0731 145.357 19.9263 145.308 19.7794C145.308 19.5835 145.21 19.3877 145.21 19.094V6.12005C145.21 5.87526 145.21 5.63046 145.308 5.43463C145.308 5.2388 145.406 5.09192 145.504 5.04297C145.602 4.94505 145.749 4.89609 145.895 4.84713C145.993 4.79818 146.14 4.74922 146.238 4.74922V4.30859H140.804V4.84713C140.902 4.84713 140.951 4.94505 141.146 4.94505C141.342 5.04297 141.489 5.09192 141.538 5.14088C141.636 5.2388 141.685 5.38567 141.734 5.53255C141.734 5.72838 141.832 5.92421 141.832 6.21796V11.6034H135.369V6.16901C135.369 5.92421 135.369 5.67942 135.467 5.48359C135.467 5.28776 135.565 5.14088 135.663 5.09192C135.761 4.99401 135.908 4.94505 136.055 4.89609C136.153 4.84713 136.3 4.79818 136.398 4.79818V4.30859H130.914V4.84713C131.012 4.84713 131.061 4.94505 131.257 4.94505C131.453 5.04297 131.6 5.09192 131.649 5.14088C131.746 5.2388 131.795 5.38567 131.844 5.53255C131.844 5.72838 131.942 5.92421 131.942 6.21796V19.1919C131.942 19.4367 131.942 19.6815 131.844 19.8773C131.844 20.0731 131.746 20.22 131.649 20.269C131.551 20.3669 131.404 20.4648 131.257 20.4648C131.159 20.5138 131.012 20.5627 130.914 20.5627V21.1013H136.446L136.398 20.5627Z" fill="#1A9F29"/>
<path d="M29.7178 6.02197C29.3751 5.53239 29.0324 5.0428 28.6897 4.55322L9.84078 15.4219L0.783511 10.1834C0.587678 10.722 0.440804 11.3584 0.391846 11.9459L9.93869 17.4782L29.7178 6.02197Z" fill="#1A9F29"/>
<path d="M9.8406 19.4852L0.0489582 13.855C0 14.2467 0 14.5894 0 14.9321C0 23.8425 7.24581 31.0883 16.1562 31.0883C25.0666 31.0883 32.3124 23.8425 32.3124 14.9321C32.3124 12.3863 31.7249 9.84046 30.5499 7.58838L9.8406 19.4852Z" fill="#1A9F29"/>
<path d="M27.3677 3.23079C26.9271 2.79017 26.4375 2.3985 25.9479 2.00684L9.84069 11.3579L2.1053 6.95161C1.86051 7.4412 1.56676 7.97973 1.27301 8.51827L9.79173 13.4141L27.3677 3.23079Z" fill="#1A9F29"/>
<path d="M24.3813 0.979164C23.7938 0.636456 23.1574 0.293749 22.472 0L9.84076 7.24581L4.21057 4.06353C3.81891 4.4552 3.4762 4.94478 3.08453 5.43436L9.84076 9.30206L24.3813 0.979164Z" fill="#1A9F29"/>
</svg>
