<svg version="1.1" xmlns="http://www.w3.org/2000/svg" xmlns:xlink="http://www.w3.org/1999/xlink" x="0px" y="0px" width="152" height="32"
	 viewBox="0 0 152 32">
<style type="text/css">
	.st0{fill:#008291;}
</style>
<path class="st0" d="M28.9,14.4c0,0,0.7-8,0.8-8.8c0.1-1.9-1.4-3.5-3.3-3.6c0,0-0.1,0-0.1,0H6C4.1,1.9,2.4,3.3,2.2,5.3
	C2.1,6.2,0.5,25.6,0.3,26.7c-0.2,1.9,1.1,3.6,3,3.8c0.1,0,0.2,0,0.4,0h20.2c2.7,0,3.7-1.4,3.9-3.6c0.1-1.3,0.8-9.2,0.8-9.2H16.4
	l-0.5,6.1h-3.1l1.3-15.2h3.1l-0.5,5.7L28.9,14.4z"/>
<path class="st0" d="M47.7,4.5c-0.4,1.2-4,12.4-4,12.4L45.3,2H33.1l-2.6,28.6h9.2c2.3,0,3.1-1.3,3.5-2.4c0.5-1.2,3.8-10.6,3.8-10.6
	l-1.2,13H58L60.5,2H51C49.5,2,48.1,3,47.7,4.5z"/>
<path class="st0" d="M109.5,2l-1.1,13h-3.1l1.1-13H94.2c0,0-1.2,13.8-1.3,15.1c-0.1,1.6,0.8,3.9,3.5,3.9h11.5l-0.3,2.9H92.3
	l-0.6,6.7H116c1.6,0,3.2-1.1,3.4-3.4c0.2-1.5,2.3-25.2,2.3-25.2H109.5z"/>
<path class="st0" d="M141.3,2h-16.6l-2.5,28.6h12.2l0.8-8.8h11.8c2.1,0,3.5-1.1,3.7-3.5c0.1-0.9,1.1-11.8,1.1-12.7
	c0.1-2.1-1.5-3.5-3.6-3.5L141.3,2z M135.7,15.8l0.6-7.1h3.1l-0.6,7.1H135.7z"/>
<path class="st0" d="M75,11.6l0.3-2.9h15.3L91.1,2H63.7l-2.5,28.6h24.3c1.5,0,3.2-0.9,3.4-3.3c0.2-1.8,0.9-10.3,1.1-11.8
	c0.2-2.1-1.1-3.8-3.7-3.8H75z M77,24.6h-3.1l0.6-7.1h3.1L77,24.6z"/>
</svg>
